<svg version="1" xmlns="http://www.w3.org/2000/svg" width="341.333" height="341.333" viewBox="0 0 256.000000 256.000000"><path d="M126.2 3.2c-1.7 1.7-1.7 29.9 0 31.6 1.6 1.6 3.3 1.5 5.1-.2 2.1-2.2 1.9-30.3-.3-31.6-2-1.3-3.4-1.2-4.8.2zM198.8 36.6C187.9 45.7 180 53.4 180 55.1c0 2.4 2.9 3.9 5.5 2.9 1.1-.5 3.8-2.5 6-4.4 2.2-2 6.6-5.8 9.8-8.4 6.4-5.2 8.1-8.7 5.2-10.9-2.6-1.8-2.8-1.8-7.7 2.3zM49 35.6c-2.3 2.6 0 5.8 10 14.1 10.4 8.7 11.7 9.5 14.3 8.1 3.4-1.8 2-4.9-4.9-10.7-1.6-1.4-5.6-4.8-9-7.8-6.5-5.6-8.3-6.3-10.4-3.7zM117.5 46.7c-7.4 1.5-16.8 5-21.5 7.8-26.2 15.9-38 48.9-28 78.1 2.8 8.1 6.3 13.7 14.6 23.3 8.4 9.8 12.6 17.6 15.3 28.3 2.3 9.2 2.6 9.8 5.1 9.1 4.5-1.2 4.7-6.2.8-17.8-2.9-8.7-7-15.4-14.7-23.9-11.9-13-17.3-27.2-16.6-42.9.6-14.1 4.7-24.5 13.5-35 11.7-14 25.7-20 45-19.3 16.4.5 27.1 5.5 38.8 18.1 10.3 11 15 23.1 15 38.6 0 13.9-3.3 23.3-11.9 34.4-2.6 3.3-5.9 7-7.3 8.3-2.9 2.5-8.6 11-10.5 15.9-.7 1.7-1.8 5.5-2.5 8.4l-1.1 5.3-21.5 5.3c-27.1 6.6-31.7 8-32.4 9.8-.8 2.1.3 4.3 2.4 5 1.9.6 56.9-13 58.2-14.3.3-.4 1.1-3.4 1.7-6.7 1.6-8.8 6.2-17.3 14.2-26.1 7.9-8.7 12.9-16.7 16.1-25.7 3.2-9.1 3.2-29.2.1-39.2-5.8-18.2-21.9-35.7-38.4-41.5-3.1-1-6.9-2.2-8.5-2.6-3.4-.8-23-1.3-25.9-.7zM19.1 98.2c-2.6.9-2.8 5.4-.3 6.6 1.3.6 21.6.9 29.4.3 2.6-.2 4-3.4 2.4-5.7-1.2-1.6-3-1.8-15.4-1.9-7.8 0-15 .3-16.1.7zM207.3 98.1c-2.7 1-3.4 3.3-1.8 5.6 1.2 1.7 2.6 1.8 16.7 1.7 8.4-.1 15.6-.2 16-.3.4 0 1.2-1.1 1.9-2.2.9-1.7.8-2.5-.5-3.7-1.3-1.4-4.2-1.7-16-1.7-7.9-.1-15.2.2-16.3.6z"/><path d="M108.5 130.3c-1.7 1.3-1.7 1.7 1.3 10 3.6 9.8 6.1 22.1 6.6 32.4.2 4 .7 7.7 1.1 8.2 1.2 2 5.3 1.2 6.1-1.2 1.7-5.1.1-20.8-3.3-32.6-1.3-4.6-2.2-8.6-2-8.8.3-.2 2 1.4 3.9 3.7 3.9 4.5 5.9 4.9 8.7 2.1 1.1-1.1 3.2-2.8 4.7-3.8 2.8-1.8 2.8-1.8 1.9.2-2.3 5.3-5.6 20.9-6.1 28.6-.7 9.8.3 12.9 4 12.9 2.7 0 3.6-2.1 3.6-9 0-9.2 5.4-32.7 8.1-35.5.5-.5.9-2.1.9-3.7 0-5.5-7.3-6.1-15.9-1.3-3.9 2.3-4.6 2.4-6.1 1-2.1-1.9-9.5-4.5-12.9-4.5-1.5 0-3.5.6-4.6 1.3zM46.5 165.5c-6.6 5.7-12.1 11.1-12.3 12-.5 2.1 1.6 4.5 3.9 4.5 2.4 0 24.1-18.5 25.3-21.5 1.1-2.7-.6-5.5-3.3-5.4-.9 0-7 4.7-13.6 10.4zM190.8 157.6c-1.1 2.4-.9 2.9 3.3 6.8 12.7 11.7 21.5 18.6 23.5 18.6 3.5 0 4.9-1.6 3.9-4.4-1.2-3.1-25.3-23.6-27.8-23.6-.9 0-2.3 1.2-2.9 2.6zM146 203c-4.1 1.1-16 4-26.5 6.6-10.4 2.6-19.6 5.1-20.2 5.7-2.2 1.6-1.6 5.4 1 6.1 1.2.3 13.8-2.3 29.2-6.1 28.1-6.8 32.1-8.5 29.9-12.1-1.5-2.4-4.6-2.4-13.4-.2zM152.9 219.4c-.2.3-1.6.7-2.9 1-1.4.3-10.6 2.6-20.5 5.1-9.9 2.6-20.9 5.4-24.5 6.4-5.9 1.4-6.5 1.9-6.8 4.4-.6 5.1 1.9 4.9 31.7-2.5 27.5-6.9 30.7-8.1 29.4-11.6-1-2.6-4.9-4.3-6.4-2.8zM138.6 242.8c-5.3 3.6-14.3 3.8-19.8.4-4.6-2.8-8.2-2.6-8.6.5-.7 5.1 10.7 10.9 19.8 10.1 5.7-.6 15-4.9 16.8-7.8.9-1.5 1-2.6.2-4-1.4-2.7-3.7-2.4-8.4.8z"/></svg>